<?xml version="1.0" encoding="UTF-8" standalone="no"?>
<!DOCTYPE svg PUBLIC "-//W3C//DTD SVG 1.1//EN" "http://www.w3.org/Graphics/SVG/1.1/DTD/svg11.dtd">
<svg version="1.1" xmlns="http://www.w3.org/2000/svg" xmlns:xlink="http://www.w3.org/1999/xlink" preserveAspectRatio="xMidYMid meet" viewBox="0 0 32 32" width="32" height="32"><defs><path d="M22.46 3.04L22.82 3.1L23.18 3.17L23.53 3.26L23.88 3.37L24.22 3.51L24.55 3.66L24.88 3.83L25.2 4.02L25.5 4.23L25.8 4.46L26.09 4.7L26.37 4.97L26.64 5.25L26.9 5.55L27.14 5.86L27.37 6.18L27.58 6.52L27.78 6.87L27.96 7.23L28.13 7.6L28.28 7.98L28.42 8.37L28.54 8.77L28.65 9.18L28.74 9.6L28.82 10.02L28.88 10.45L28.92 10.89L28.94 11.34L28.95 11.78L28.94 12.24L28.91 12.7L28.86 13.15L28.8 13.6L28.71 14.05L28.6 14.49L28.47 14.93L28.32 15.37L28.16 15.81L27.97 16.25L27.76 16.69L27.52 17.13L27.27 17.57L27 18.01L26.7 18.46L26.38 18.9L26.08 19.3L25.76 19.7L25.43 20.11L25.08 20.51L24.72 20.92L24.35 21.33L23.96 21.75L23.56 22.17L23.14 22.59L22.72 23.02L22.28 23.45L21.84 23.89L21.38 24.33L20.91 24.79L20.44 25.24L19.95 25.71L19.78 25.87L19.61 26.04L19.44 26.2L19.26 26.37L19.08 26.55L18.9 26.72L18.72 26.9L18.54 27.08L18.35 27.26L18.16 27.44L17.97 27.62L17.78 27.81L17.59 28L17.39 28.19L17.2 28.38L17 28.57L16.95 28.62L16.89 28.67L16.84 28.71L16.78 28.75L16.72 28.79L16.66 28.83L16.6 28.86L16.54 28.89L16.48 28.91L16.41 28.93L16.35 28.95L16.28 28.97L16.21 28.98L16.15 28.99L16.08 29L16.01 29L16 29L15.93 29L15.86 28.99L15.79 28.98L15.73 28.97L15.66 28.95L15.59 28.94L15.53 28.91L15.46 28.89L15.4 28.86L15.34 28.83L15.28 28.79L15.22 28.76L15.16 28.71L15.11 28.67L15.05 28.62L15 28.57L14.8 28.38L14.61 28.19L14.41 28L14.22 27.81L14.03 27.63L13.84 27.44L13.65 27.26L13.47 27.08L13.28 26.9L13.1 26.72L12.92 26.55L12.74 26.38L12.57 26.21L12.39 26.04L12.22 25.88L12.05 25.72L12.05 25.71L11.56 25.25L11.09 24.79L10.62 24.33L10.16 23.89L9.72 23.45L9.28 23.02L8.86 22.59L8.44 22.17L8.04 21.75L7.65 21.33L7.28 20.92L6.92 20.51L6.57 20.11L6.24 19.7L5.92 19.3L5.62 18.9L5.3 18.46L5 18.01L4.73 17.57L4.48 17.13L4.24 16.69L4.03 16.25L3.84 15.81L3.68 15.37L3.53 14.93L3.4 14.49L3.29 14.05L3.2 13.6L3.14 13.15L3.09 12.7L3.06 12.24L3.05 11.78L3.06 11.34L3.08 10.89L3.12 10.45L3.18 10.02L3.26 9.6L3.35 9.18L3.46 8.77L3.58 8.37L3.72 7.98L3.87 7.6L4.04 7.23L4.22 6.87L4.42 6.52L4.63 6.18L4.86 5.86L5.1 5.55L5.36 5.25L5.63 4.97L5.91 4.7L6.2 4.46L6.5 4.23L6.8 4.02L7.12 3.83L7.45 3.66L7.78 3.51L8.12 3.37L8.47 3.26L8.82 3.17L9.18 3.1L9.54 3.04L9.91 3.01L10.28 3L10.56 3.01L10.84 3.03L11.11 3.06L11.38 3.1L11.65 3.16L11.91 3.23L12.17 3.31L12.43 3.4L12.68 3.51L12.93 3.62L13.18 3.75L13.42 3.9L13.66 4.05L13.9 4.22L14.13 4.4L14.35 4.59L14.47 4.69L14.58 4.79L14.69 4.9L14.8 5.01L14.91 5.12L15.01 5.23L15.12 5.35L15.22 5.47L15.33 5.59L15.43 5.72L15.53 5.85L15.62 5.98L15.72 6.11L15.81 6.25L15.91 6.38L16 6.52L16.01 6.51L16.1 6.37L16.19 6.23L16.29 6.1L16.38 5.97L16.48 5.84L16.58 5.71L16.68 5.59L16.78 5.46L16.89 5.35L16.99 5.23L17.1 5.11L17.2 5L17.31 4.9L17.42 4.79L17.53 4.69L17.65 4.59L17.87 4.4L18.11 4.22L18.34 4.05L18.58 3.9L18.82 3.75L19.07 3.62L19.32 3.51L19.57 3.4L19.83 3.31L20.09 3.23L20.35 3.16L20.62 3.1L20.89 3.06L21.16 3.03L21.44 3.01L21.72 3L22.09 3.01L22.46 3.04Z" id="eePJb1uhB"></path><mask id="maska2X32vvRFt" x="-36.95" y="-37" width="105.9" height="106" maskUnits="userSpaceOnUse"><rect x="-36.95" y="-37" width="105.9" height="106" fill="white"></rect><use xlink:href="#eePJb1uhB" opacity="1" fill="black"></use></mask><path d="M22.26 3.4L22.61 3.45L22.96 3.52L23.3 3.61L23.63 3.72L23.96 3.84L24.28 3.99L24.59 4.15L24.9 4.33L25.2 4.53L25.49 4.75L25.76 4.98L26.03 5.23L26.29 5.5L26.54 5.79L26.77 6.08L26.99 6.39L27.2 6.71L27.39 7.04L27.57 7.39L27.73 7.74L27.88 8.11L28.01 8.48L28.13 8.86L28.23 9.25L28.32 9.65L28.39 10.05L28.45 10.46L28.49 10.88L28.51 11.3L28.52 11.73L28.51 12.17L28.48 12.6L28.44 13.04L28.37 13.46L28.29 13.89L28.18 14.31L28.06 14.73L27.92 15.15L27.75 15.57L27.57 15.99L27.37 16.41L27.14 16.83L26.9 17.25L26.64 17.67L26.35 18.09L26.04 18.51L25.75 18.9L25.45 19.28L25.13 19.66L24.79 20.05L24.44 20.44L24.08 20.83L23.71 21.23L23.32 21.63L22.92 22.03L22.51 22.44L22.09 22.85L21.66 23.27L21.22 23.69L20.77 24.12L20.31 24.56L19.85 25L19.68 25.16L19.52 25.31L19.35 25.47L19.18 25.64L19.01 25.8L18.83 25.97L18.66 26.13L18.48 26.3L18.3 26.48L18.12 26.65L17.94 26.83L17.75 27L17.57 27.18L17.38 27.37L17.19 27.55L17 27.73L16.95 27.78L16.9 27.82L16.84 27.87L16.79 27.9L16.73 27.94L16.68 27.97L16.62 28L16.56 28.03L16.49 28.05L16.43 28.08L16.37 28.09L16.31 28.11L16.24 28.12L16.18 28.13L16.11 28.13L16.04 28.14L16.04 28.14L15.97 28.14L15.9 28.13L15.84 28.12L15.77 28.11L15.71 28.1L15.64 28.08L15.58 28.06L15.52 28.03L15.46 28.01L15.4 27.97L15.34 27.94L15.28 27.91L15.23 27.87L15.17 27.82L15.12 27.78L15.07 27.73L14.88 27.55L14.69 27.37L14.51 27.19L14.32 27.01L14.14 26.83L13.96 26.65L13.77 26.48L13.59 26.31L13.42 26.14L13.24 25.97L13.07 25.8L12.9 25.64L12.73 25.48L12.56 25.32L12.39 25.16L12.23 25.01L12.23 25L11.76 24.56L11.3 24.12L10.85 23.69L10.41 23.27L9.98 22.85L9.56 22.44L9.15 22.03L8.75 21.63L8.36 21.23L7.99 20.83L7.63 20.44L7.28 20.05L6.95 19.66L6.62 19.28L6.32 18.9L6.03 18.51L5.72 18.09L5.44 17.67L5.17 17.25L4.93 16.83L4.7 16.41L4.5 15.99L4.32 15.57L4.16 15.15L4.01 14.73L3.89 14.31L3.78 13.89L3.7 13.46L3.63 13.04L3.59 12.6L3.56 12.17L3.55 11.73L3.56 11.3L3.58 10.88L3.62 10.46L3.68 10.05L3.75 9.65L3.84 9.25L3.94 8.86L4.06 8.48L4.2 8.11L4.34 7.74L4.51 7.39L4.68 7.04L4.87 6.71L5.08 6.39L5.3 6.08L5.53 5.79L5.78 5.5L6.04 5.23L6.31 4.98L6.59 4.75L6.87 4.53L7.17 4.33L7.48 4.15L7.79 3.99L8.11 3.84L8.44 3.72L8.77 3.61L9.11 3.52L9.46 3.45L9.81 3.4L10.17 3.37L10.53 3.36L10.8 3.37L11.06 3.38L11.32 3.41L11.58 3.46L11.84 3.51L12.09 3.57L12.35 3.65L12.59 3.74L12.84 3.84L13.08 3.95L13.32 4.08L13.55 4.21L13.78 4.36L14.01 4.52L14.23 4.69L14.45 4.87L14.56 4.97L14.67 5.07L14.77 5.17L14.88 5.27L14.98 5.38L15.09 5.49L15.19 5.6L15.29 5.71L15.39 5.83L15.48 5.95L15.58 6.07L15.67 6.2L15.77 6.32L15.86 6.45L15.95 6.58L16.04 6.72L16.04 6.71L16.13 6.57L16.22 6.44L16.31 6.31L16.41 6.19L16.5 6.06L16.59 5.94L16.69 5.82L16.79 5.71L16.89 5.59L16.99 5.48L17.09 5.37L17.2 5.27L17.3 5.17L17.41 5.06L17.51 4.97L17.62 4.87L17.84 4.69L18.07 4.52L18.29 4.36L18.52 4.21L18.76 4.08L18.99 3.95L19.24 3.84L19.48 3.74L19.73 3.65L19.98 3.57L20.23 3.51L20.49 3.46L20.75 3.41L21.01 3.38L21.28 3.37L21.55 3.36L21.91 3.37L22.26 3.4Z" id="a72UoIzz"></path><mask id="maskc2r9PMpVtg" x="-2.45" y="-2.64" width="36.97" height="36.78" maskUnits="userSpaceOnUse"><rect x="-2.45" y="-2.64" width="36.97" height="36.78" fill="white"></rect><use xlink:href="#a72UoIzz" opacity="1" fill="black"></use></mask></defs><g><g><g><use xlink:href="#eePJb1uhB" opacity="1" fill="#ffffff" fill-opacity="0"></use><g mask="url(#maska2X32vvRFt)"><use xlink:href="#eePJb1uhB" opacity="1" fill-opacity="0" stroke="#ffffff" stroke-width="40" stroke-opacity="1"></use></g></g><g><use xlink:href="#a72UoIzz" opacity="1" fill="#f4f3f3" fill-opacity="0"></use><g mask="url(#maskc2r9PMpVtg)"><use xlink:href="#a72UoIzz" opacity="1" fill-opacity="0" stroke="#170e0e" stroke-width="6" stroke-opacity="1"></use></g></g></g></g></svg>
